HIERARCHY
ROOT Hips
{
  OFFSET -21.7848 93.0946 1805.31
  CHANNELS 6 Xposition Yposition Zposition Zrotation Xrotation Yrotation
  JOINT Spine
  {
    OFFSET 0 8 0
    CHANNELS 6 Xposition Yposition Zposition Zrotation Xrotation Yrotation
    JOINT Spine1
    {
      OFFSET 0 8 0
      CHANNELS 6 Xposition Yposition Zposition Zrotation Xrotation Yrotation
      JOINT Spine2
      {
        OFFSET 0 8 0
        CHANNELS 6 Xposition Yposition Zposition Zrotation Xrotation Yrotation
        JOINT Spine3
        {
          OFFSET 0 8 0
          CHANNELS 6 Xposition Yposition Zposition Zrotation Xrotation Yrotation
          JOINT Neck
          {
            OFFSET 0 17 0
            CHANNELS 6 Xposition Yposition Zposition Zrotation Xrotation Yrotation
            JOINT Head
            {
              OFFSET 0 10.8 0
              CHANNELS 6 Xposition Yposition Zposition Zrotation Xrotation Yrotation
              End Site
              {
                OFFSET 0 20.25 0
              }
            }
          }
          JOINT LeftShoulder
          {
            OFFSET 5 17 0
            CHANNELS 6 Xposition Yposition Zposition Zrotation Xrotation Yrotation
            JOINT LeftShoulder2
            {
              OFFSET 6.45 0 0
              CHANNELS 6 Xposition Yposition Zposition Zrotation Xrotation Yrotation
              JOINT LeftArm
              {
                OFFSET 6.45 0 0
                CHANNELS 6 Xposition Yposition Zposition Zrotation Xrotation Yrotation
                JOINT LeftForeArm
                {
                  OFFSET 0 -32.4 -2
                  CHANNELS 6 Xposition Yposition Zposition Zrotation Xrotation Yrotation
                  JOINT LeftHand
                  {
                    OFFSET 0 -25.65 2
                    CHANNELS 6 Xposition Yposition Zposition Zrotation Xrotation Yrotation
                    JOINT LeftHandThumb1
                    {
                      OFFSET -0.5 -1.5 2.65
                      CHANNELS 6 Xposition Yposition Zposition Zrotation Xrotation Yrotation
                      JOINT LeftHandThumb2
                      {
                        OFFSET 0 -3.8 3.7
                        CHANNELS 6 Xposition Yposition Zposition Zrotation Xrotation Yrotation
                        JOINT LeftHandThumb3
                        {
                          OFFSET 0 -3 2.7
                          CHANNELS 6 Xposition Yposition Zposition Zrotation Xrotation Yrotation
                          End Site
                          {
                            OFFSET 0 -2.3 1.8
                          }
                        }
                      }
                    }
                    JOINT LeftHandIndex
                    {
                      OFFSET 0 -1.9 1.6
                      CHANNELS 6 Xposition Yposition Zposition Zrotation Xrotation Yrotation
                      JOINT LeftHandIndex1
                      {
                        OFFSET 0 -8.3 1.9
                        CHANNELS 6 Xposition Yposition Zposition Zrotation Xrotation Yrotation
                        JOINT LeftHandIndex2
                        {
                          OFFSET 0 -4.5 0
                          CHANNELS 6 Xposition Yposition Zposition Zrotation Xrotation Yrotation
                          JOINT LeftHandIndex3
                          {
                            OFFSET 0 -3.4 0
                            CHANNELS 6 Xposition Yposition Zposition Zrotation Xrotation Yrotation
                            End Site
                            {
                              OFFSET 0 -2.6 0
                            }
                          }
                        }
                      }
                    }
                    JOINT LeftHandMiddle
                    {
                      OFFSET -0.25 -2.2 0.4
                      CHANNELS 6 Xposition Yposition Zposition Zrotation Xrotation Yrotation
                      JOINT LeftHandMiddle1
                      {
                        OFFSET 0 -8.3 1
                        CHANNELS 6 Xposition Yposition Zposition Zrotation Xrotation Yrotation
                        JOINT LeftHandMiddle2
                        {
                          OFFSET 0 -4.65 0
                          CHANNELS 6 Xposition Yposition Zposition Zrotation Xrotation Yrotation
                          JOINT LeftHandMiddle3
                          {
                            OFFSET 0 -3.3 0
                            CHANNELS 6 Xposition Yposition Zposition Zrotation Xrotation Yrotation
                            End Site
                            {
                              OFFSET 0 -2.7 0
                            }
                          }
                        }
                      }
                    }
                    JOINT LeftHandRing
                    {
                      OFFSET -0.5 -2.15 -0.8
                      CHANNELS 6 Xposition Yposition Zposition Zrotation Xrotation Yrotation
                      JOINT LeftHandRing1
                      {
                        OFFSET 0 -7.75 -0.2
                        CHANNELS 6 Xposition Yposition Zposition Zrotation Xrotation Yrotation
                        JOINT LeftHandRing2
                        {
                          OFFSET 0 -3.8 0
                          CHANNELS 6 Xposition Yposition Zposition Zrotation Xrotation Yrotation
                          JOINT LeftHandRing3
                          {
                            OFFSET 0 -3.4 0
                            CHANNELS 6 Xposition Yposition Zposition Zrotation Xrotation Yrotation
                            End Site
                            {
                              OFFSET 0 -2.6 0
                            }
                          }
                        }
                      }
                    }
                    JOINT LeftHandPinky
                    {
                      OFFSET -0.75 -1.75 -1.85
                      CHANNELS 6 Xposition Yposition Zposition Zrotation Xrotation Yrotation
                      JOINT LeftHandPinky1
                      {
                        OFFSET 0 -7.15 -1
                        CHANNELS 6 Xposition Yposition Zposition Zrotation Xrotation Yrotation
                        JOINT LeftHandPinky2
                        {
                          OFFSET 0 -3 0
                          CHANNELS 6 Xposition Yposition Zposition Zrotation Xrotation Yrotation
                          JOINT LeftHandPinky3
                          {
                            OFFSET 0 -2.35 0
                            CHANNELS 6 Xposition Yposition Zposition Zrotation Xrotation Yrotation
                            End Site
                            {
                              OFFSET 0 -2.1 0
                            }
                          }
                        }
                      }
                    }
                  }
                }
              }
            }
          }
          JOINT RightShoulder
          {
            OFFSET -5 17 0
            CHANNELS 6 Xposition Yposition Zposition Zrotation Xrotation Yrotation
            JOINT RightShoulder2
            {
              OFFSET -6.45 0 0
              CHANNELS 6 Xposition Yposition Zposition Zrotation Xrotation Yrotation
              JOINT RightArm
              {
                OFFSET -6.45 0 0
                CHANNELS 6 Xposition Yposition Zposition Zrotation Xrotation Yrotation
                JOINT RightForeArm
                {
                  OFFSET 0 -32.4 -2
                  CHANNELS 6 Xposition Yposition Zposition Zrotation Xrotation Yrotation
                  JOINT RightHand
                  {
                    OFFSET 0 -25.65 2
                    CHANNELS 6 Xposition Yposition Zposition Zrotation Xrotation Yrotation
                    JOINT RightHandThumb1
                    {
                      OFFSET 0.5 -1.5 2.65
                      CHANNELS 6 Xposition Yposition Zposition Zrotation Xrotation Yrotation
                      JOINT RightHandThumb2
                      {
                        OFFSET 0 -3.8 3.7
                        CHANNELS 6 Xposition Yposition Zposition Zrotation Xrotation Yrotation
                        JOINT RightHandThumb3
                        {
                          OFFSET 0 -3 2.7
                          CHANNELS 6 Xposition Yposition Zposition Zrotation Xrotation Yrotation
                          End Site
                          {
                            OFFSET 0 -2.3 1.8
                          }
                        }
                      }
                    }
                    JOINT RightHandIndex
                    {
                      OFFSET 0 -1.9 1.6
                      CHANNELS 6 Xposition Yposition Zposition Zrotation Xrotation Yrotation
                      JOINT RightHandIndex1
                      {
                        OFFSET 0 -8.3 1.9
                        CHANNELS 6 Xposition Yposition Zposition Zrotation Xrotation Yrotation
                        JOINT RightHandIndex2
                        {
                          OFFSET 0 -4.5 0
                          CHANNELS 6 Xposition Yposition Zposition Zrotation Xrotation Yrotation
                          JOINT RightHandIndex3
                          {
                            OFFSET 0 -3.4 0
                            CHANNELS 6 Xposition Yposition Zposition Zrotation Xrotation Yrotation
                            End Site
                            {
                              OFFSET 0 -2.6 0
                            }
                          }
                        }
                      }
                    }
                    JOINT RightHandMiddle
                    {
                      OFFSET 0.25 -2.2 0.4
                      CHANNELS 6 Xposition Yposition Zposition Zrotation Xrotation Yrotation
                      JOINT RightHandMiddle1
                      {
                        OFFSET 0 -8.3 1
                        CHANNELS 6 Xposition Yposition Zposition Zrotation Xrotation Yrotation
                        JOINT RightHandMiddle2
                        {
                          OFFSET 0 -4.65 0
                          CHANNELS 6 Xposition Yposition Zposition Zrotation Xrotation Yrotation
                          JOINT RightHandMiddle3
                          {
                            OFFSET 0 -3.3 0
                            CHANNELS 6 Xposition Yposition Zposition Zrotation Xrotation Yrotation
                            End Site
                            {
                              OFFSET 0 -2.7 0
                            }
                          }
                        }
                      }
                    }
                    JOINT RightHandRing
                    {
                      OFFSET 0.5 -2.15 -0.8
                      CHANNELS 6 Xposition Yposition Zposition Zrotation Xrotation Yrotation
                      JOINT RightHandRing1
                      {
                        OFFSET 0 -7.75 -0.2
                        CHANNELS 6 Xposition Yposition Zposition Zrotation Xrotation Yrotation
                        JOINT RightHandRing2
                        {
                          OFFSET 0 -3.8 0
                          CHANNELS 6 Xposition Yposition Zposition Zrotation Xrotation Yrotation
                          JOINT RightHandRing3
                          {
                            OFFSET 0 -3.4 0
                            CHANNELS 6 Xposition Yposition Zposition Zrotation Xrotation Yrotation
                            End Site
                            {
                              OFFSET 0 -2.6 0
                            }
                          }
                        }
                      }
                    }
                    JOINT RightHandPinky
                    {
                      OFFSET 0.75 -1.75 -1.85
                      CHANNELS 6 Xposition Yposition Zposition Zrotation Xrotation Yrotation
                      JOINT RightHandPinky1
                      {
                        OFFSET 0 -7.15 -1
                        CHANNELS 6 Xposition Yposition Zposition Zrotation Xrotation Yrotation
                        JOINT RightHandPinky2
                        {
                          OFFSET 0 -3 0
                          CHANNELS 6 Xposition Yposition Zposition Zrotation Xrotation Yrotation
                          JOINT RightHandPinky3
                          {
                            OFFSET 0 -2.35 0
                            CHANNELS 6 Xposition Yposition Zposition Zrotation Xrotation Yrotation
                            End Site
                            {
                              OFFSET 0 -2.1 0
                            }
                          }
                        }
                      }
                    }
                  }
                }
              }
            }
          }
        }
      }
    }
  }
  JOINT LeftUpLeg
  {
    OFFSET 8 0 0
    CHANNELS 6 Xposition Yposition Zposition Zrotation Xrotation Yrotation
    JOINT LeftLeg
    {
      OFFSET 0 -45 -1
      CHANNELS 6 Xposition Yposition Zposition Zrotation Xrotation Yrotation
      JOINT LeftFoot
      {
        OFFSET 0 -41 -2
        CHANNELS 6 Xposition Yposition Zposition Zrotation Xrotation Yrotation
        JOINT LeftToeBase
        {
          OFFSET 0 -7.5 12.5
          CHANNELS 6 Xposition Yposition Zposition Zrotation Xrotation Yrotation
          JOINT LeftFootToe
          {
            OFFSET 0 0 4
            CHANNELS 6 Xposition Yposition Zposition Zrotation Xrotation Yrotation
            End Site
            {
              OFFSET 0 0 0
            }
          }
        }
      }
    }
  }
  JOINT RightUpLeg
  {
    OFFSET -8 0 0
    CHANNELS 6 Xposition Yposition Zposition Zrotation Xrotation Yrotation
    JOINT RightLeg
    {
      OFFSET 0 -45 -1
      CHANNELS 6 Xposition Yposition Zposition Zrotation Xrotation Yrotation
      JOINT RightFoot
      {
        OFFSET 0 -41 -2
        CHANNELS 6 Xposition Yposition Zposition Zrotation Xrotation Yrotation
        JOINT RightToeBase
        {
          OFFSET 0 -7.5 12.5
          CHANNELS 6 Xposition Yposition Zposition Zrotation Xrotation Yrotation
          JOINT RightFootToe
          {
            OFFSET 0 0 4
            CHANNELS 6 Xposition Yposition Zposition Zrotation Xrotation Yrotation
            End Site
            {
              OFFSET 0 0 0
            }
          }
        }
      }
    }
  }
}
MOTION
Frames:	3
Frame Time:	0.0111111
-314.639 72.3163 1165.77 -1.16591 5.31687 168.286 0 8 0 8.72868 13.8438 -7.40206 0 8 0 0.15844 9.43109 4.63162 5.68434e-14 8 2.27374e-13 0.174809 4.72391 2.31609 2.84217e-14 8 0 0.17447 4.70402 2.30636 -2.84217e-14 17 0 6.52681 1.01253 -3.49938 0 10.8 0 15.3542 1.73089 -8.32959 5 17 0 -3.99534 0.473864 -2.05183 6.45 0 0 -1.22323 0.78122 7.17397 6.45 -1.13687e-13 0 40.2433 43.2767 43.8837 -2.84217e-14 -32.4 -2 -142.041 -27.6539 -141.858 -5.68434e-14 -25.65 2 -34.9937 15.3016 -14.4466 -0.5 -1.5 2.65 40.0874 -25.9794 86.7293 5.68434e-14 -3.8 3.7 -0.169866 17.1072 0.00101985 1.13687e-13 -3 2.7 -0.00431986 -0.294291 0.00767032 0 -1.9 1.6 -2.75869e-33 -3.97569e-16 -3.97569e-16 1.13687e-13 -8.3 1.9 -34.8987 -31.6591 -9.26139 0 -4.5 0 -1.95062e-08 -0.00643074 -0.000173794 0 -3.4 5.68434e-14 -1.11458e-08 -0.00406865 -0.000156958 -0.25 -2.2 0.4 -2.75869e-33 -3.97569e-16 -3.97569e-16 -1.13687e-13 -8.3 1 -25.2176 -25.058 -3.98856 0 -4.65 0 -12.2804 0.000545977 -0.0012381 0 -3.3 -5.68434e-14 -90.0002 -7.12526e-05 -0.000377209 -0.5 -2.15 -0.8 -2.75869e-33 -3.97569e-16 -3.97569e-16 1.13687e-13 -7.75 -0.2 -62.5342 2.81332 9.19788 0 -3.8 0 -90.0002 -1.59028e-15 8.74653e-15 0 -3.4 1.13687e-13 -90.0002 3.05176e-05 -0.00108337 -0.75 -1.75 -1.85 -2.75869e-33 -3.97569e-16 -3.97569e-16 0 -7.15 -1 -8.31719 23.152 2.87312 0 -3 0 -1.59027e-15 4.69264e-05 -3.18055e-15 0 -2.35 1.13687e-13 1.59028e-15 0.000260792 -0 -5 17 -2.27374e-13 11.7655 -3.97922 -3.49994 -6.45 0 2.27374e-13 -2.79312 0.655584 -4.48299 -6.45 -5.68434e-14 2.27374e-13 -34.327 -21.7985 48.3023 1.13687e-13 -32.4 -2 -62.2149 -73.3268 -84.1033 1.13687e-13 -25.65 2 -18.5845 -1.72336 -7.7084 0.5 -1.5 2.65 10.8632 3.29583 7.88349 -1.13687e-13 -3.8 3.7 1.51474 11.0003 -0.449875 0 -3 2.7 0.142032 39.5828 -0.12204 5.68434e-14 -1.9 1.6 1.46604e-15 -3.18055e-15 3.23025e-15 5.68434e-14 -8.3 1.9 22.3518 -9.54135 1.67886 -1.13687e-13 -4.5 2.84217e-14 1.05912e-07 0.00790954 -0.000767214 1.13687e-13 -3.4 0 9.33951e-08 0.00701762 -0.00076253 0.25 -2.2 0.4 1.46604e-15 -3.18055e-15 3.23025e-15 0 -8.3 1 51.4458 1.56445 -3.25409 0 -4.65 0 4.04886 -0.00145164 -0.00204511 1.13687e-13 -3.3 0 3.83405 -0.0017646 -0.00205696 0.5 -2.15 -0.8 1.46604e-15 -3.18055e-15 3.23025e-15 0 -7.75 -0.2 54.3862 -3.57827 -2.11045 0 -3.8 -5.68434e-14 56.0379 0.00594652 0.000875625 1.13687e-13 -3.4 -5.68434e-14 38.8731 0.00175694 -0.00026088 0.75 -1.75 -1.85 1.46604e-15 -3.18055e-15 3.23025e-15 0 -7.15 -1 81.0531 -4.73803 -6.24479 2.27374e-13 -3 0 76.5127 0.0010733 -0.000319738 5.68434e-14 -2.35 0 60.3483 -0.000332365 -0.00304484 8 2.84217e-14 -2.27374e-13 5.28183 -53.3078 4.24163 0 -45 -1 1.32769 52.5104 -2.97276 0 -41 -2 -4.83598 5.73274 24.2072 0 -7.5 12.5 -6.21202e-18 2.48481e-17 -1.59028e-15 0 0 4 0.0862878 -6.78291 36.1501 -8 0 2.27374e-13 -52.5715 -39.8168 -59.2796 0 -45 -1 -18.0777 72.0894 25.9234 0 -41 -2 -0.137592 0.981177 23.849 5.68434e-14 -7.5 12.5 7.95139e-16 1.59028e-15 -0 0 0 4 -17.4371 -5.03347 76.9438 
-314.623 72.3176 1165.74 -1.15296 5.22083 168.304 0 8 -2.27374e-13 8.71955 13.8823 -7.41037 -5.68434e-14 8 0 0.127814 9.44692 4.61488 -5.68434e-14 8 0 0.159334 4.73216 2.30709 0 8 0 0.159065 4.71223 2.29738 2.84217e-14 17 0 6.54209 1.0757 -3.44393 5.68434e-14 10.8 2.27374e-13 15.3956 1.88614 -8.21225 5 17 -2.27374e-13 -4.00448 0.475107 -2.00655 6.45 -5.68434e-14 0 -1.24187 0.766844 7.15428 6.45 0 0 40.5282 43.0103 43.9612 0 -32.4 -2 -142.047 -27.7559 -141.372 0 -25.65 2 -35.0087 15.3173 -14.3423 -0.5 -1.5 2.65 40.2439 -26.0335 86.6461 0 -3.8 3.7 -0.169898 17.3268 0.00108096 -5.68434e-14 -3 2.7 -0.00431987 -0.294291 0.00767025 1.13687e-13 -1.9 1.6 -6.36111e-15 3.97569e-16 7.95139e-16 0 -8.3 1.9 -34.7075 -31.6627 -9.2095 2.27374e-13 -4.5 0 -1.89737e-08 -0.00644581 -0.000168654 0 -3.4 0 -1.08097e-08 -0.00407493 -0.00015199 -0.25 -2.2 0.4 -6.36111e-15 3.97569e-16 7.95139e-16 0 -8.3 1 -25.2077 -25.0417 -3.98875 0 -4.65 0 -12.2804 0.000542346 -0.00123298 -2.27374e-13 -3.3 0 -90.0002 -5.83352e-05 -0.000350413 -0.5 -2.15 -0.8 -6.36111e-15 3.97569e-16 7.95139e-16 0 -7.75 -0.2 -62.557 2.8723 9.24226 1.13687e-13 -3.8 0 -90.0002 3.49861e-14 -3.10104e-14 1.13687e-13 -3.4 1.13687e-13 -90.0002 3.05176e-05 -0.00106812 -0.75 -1.75 -1.85 -6.36111e-15 3.97569e-16 7.95139e-16 1.13687e-13 -7.15 -1 -8.48992 23.3517 2.94763 0 -3 1.13687e-13 2.44665e-21 4.4075e-05 -3.18055e-15 0 -2.35 -1.13687e-13 -1.59028e-15 0.000244192 1.59028e-15 -5 17 -2.27374e-13 11.7303 -3.97891 -3.50381 -6.45 0 0 -2.7939 0.658734 -4.47938 -6.45 0 0 -34.2443 -21.947 48.3556 1.13687e-13 -32.4 -2 -62.5786 -73.2981 -84.4864 0 -25.65 2 -18.6278 -1.72089 -7.72547 0.5 -1.5 2.65 10.8643 3.29515 7.8813 1.13687e-13 -3.8 3.7 1.51883 11.0027 -0.450237 0 -3 2.7 0.142279 39.6074 -0.122253 5.68434e-14 -1.9 1.6 6.70898e-16 6.36111e-15 -9.93923e-16 0 -8.3 1.9 22.3189 -9.48018 1.66474 -1.13687e-13 -4.5 0 1.05782e-07 0.00791566 -0.000765676 0 -3.4 -2.84217e-14 9.32787e-08 0.00702298 -0.000760998 0.25 -2.2 0.4 6.70898e-16 6.36111e-15 -9.93923e-16 0 -8.3 1 51.4588 1.60534 -3.27604 0 -4.65 0 4.06388 -0.00143898 -0.00203192 0 -3.3 0 3.8475 -0.00179 -0.00204415 0.5 -2.15 -0.8 6.70898e-16 6.36111e-15 -9.93923e-16 -5.68434e-14 -7.75 -0.2 54.3835 -3.53917 -2.13026 0 -3.8 0 56.0811 0.00592933 0.000862175 1.13687e-13 -3.4 -5.68434e-14 38.9064 0.00174712 -0.000252578 0.75 -1.75 -1.85 6.70898e-16 6.36111e-15 -9.93923e-16 0 -7.15 -1 81.0606 -4.72725 -6.25532 -2.27374e-13 -3 0 76.6763 0.00106264 -0.000342209 0 -2.35 0 60.5925 -0.000346232 -0.00303102 8 0 -2.27374e-13 5.33602 -53.4043 4.27491 -2.84217e-14 -45 -1 1.33041 52.5528 -2.97468 -8.52651e-14 -41 -2 -4.82255 5.69096 24.2141 0 -7.5 12.5 -6.21202e-18 -2.48481e-17 1.59028e-15 0 0 4 0.0771455 -6.75176 36.1476 -8 0 -2.27374e-13 -52.5894 -39.8444 -59.3941 0 -45 -1 -18.0771 72.0721 25.9315 1.13687e-13 -41 -2 -0.148902 0.977762 23.8543 0 -7.5 12.5 7.95139e-16 3.18055e-15 -0 1.13687e-13 0 4 -17.439 -5.0344 76.9438 
-314.603 72.3199 1165.72 -1.1401 5.1328 168.322 -5.68434e-14 8 2.27374e-13 8.70394 13.9253 -7.41516 0 8 -2.27374e-13 0.0933642 9.46964 4.59691 5.68434e-14 8 0 0.14199 4.74391 2.29738 -2.84217e-14 8 2.27374e-13 0.141796 4.7239 2.2877 0 17 -2.27374e-13 6.56162 1.13514 -3.38465 -1.13687e-13 10.8 -2.27374e-13 15.4464 2.03313 -8.08547 5 17 0 -4.00693 0.466218 -1.9578 6.45 -5.68434e-14 -2.27374e-13 -1.26034 0.751797 7.13632 6.45 0 0 40.754 42.6948 44.0559 2.84217e-14 -32.4 -2 -141.999 -27.8878 -140.879 0 -25.65 2 -34.9689 15.3368 -14.2275 -0.5 -1.5 2.65 40.3806 -26.1384 86.5044 -1.13687e-13 -3.8 3.7 -0.169929 17.5689 0.00114406 -5.68434e-14 -3 2.7 -0.00431989 -0.294291 0.00767018 0 -1.9 1.6 0 3.97569e-16 -0 0 -8.3 1.9 -34.5067 -31.6626 -9.15394 -2.27374e-13 -4.5 -2.84217e-14 -1.84413e-08 -0.00646085 -0.000163541 0 -3.4 0 -1.04741e-08 -0.00408113 -0.000147048 -0.25 -2.2 0.4 0 3.97569e-16 -0 1.13687e-13 -8.3 1 -25.2111 -25.0317 -3.98942 2.27374e-13 -4.65 0 -12.2804 0.000538687 -0.00122777 0 -3.3 5.68434e-14 -90.0002 -4.65823e-05 -0.00032219 -0.5 -2.15 -0.8 0 3.97569e-16 -0 1.13687e-13 -7.75 -0.2 -62.5465 2.91331 9.26921 -1.13687e-13 -3.8 -1.13687e-13 -90.0002 1.19271e-14 -7.95139e-15 0 -3.4 0 -90.0002 3.05176e-05 -0.00106812 -0.75 -1.75 -1.85 0 3.97569e-16 -0 0 -7.15 -1 -8.59372 23.4713 2.99337 0 -3 -1.13687e-13 -4.77083e-15 4.12132e-05 -3.18055e-15 2.27374e-13 -2.35 0 -6.36111e-15 0.000227631 -0 -5 17 0 11.6968 -3.9921 -3.51797 -6.45 -5.68434e-14 0 -2.79483 0.660655 -4.47179 -6.45 0 0 -34.1501 -22.092 48.4162 0 -32.4 -2 -62.9773 -73.2626 -84.9028 0 -25.65 2 -18.6558 -1.7059 -7.73493 0.5 -1.5 2.65 10.8649 3.30187 7.87891 0 -3.8 3.7 1.52293 11.0057 -0.450613 0 -3 2.7 0.142525 39.6326 -0.122463 -5.68434e-14 -1.9 1.6 -1.61513e-15 0 1.62755e-15 0 -8.3 1.9 22.2891 -9.42305 1.6516 -1.13687e-13 -4.5 0 1.05652e-07 0.00792179 -0.000764144 1.13687e-13 -3.4 -2.84217e-14 9.31627e-08 0.00702835 -0.000759471 0.25 -2.2 0.4 -1.61513e-15 0 1.62755e-15 0 -8.3 1 51.4767 1.63974 -3.29512 -1.13687e-13 -4.65 5.68434e-14 4.06814 -0.00142615 -0.00201883 -1.13687e-13 -3.3 5.68434e-14 3.85136 -0.00181542 -0.00203145 0.5 -2.15 -0.8 -1.61513e-15 0 1.62755e-15 -5.68434e-14 -7.75 -0.2 54.3796 -3.50478 -2.14738 -1.13687e-13 -3.8 0 56.1211 0.00591219 0.000848827 0 -3.4 5.68434e-14 38.9372 0.00173736 -0.000244389 0.75 -1.75 -1.85 -1.61513e-15 0 1.62755e-15 0 -7.15 -1 81.0659 -4.71949 -6.26283 0 -3 0 76.8482 0.00105208 -0.000364629 0 -2.35 1.13687e-13 60.8498 -0.000359972 -0.00301734 8 0 0 5.38832 -53.4918 4.30274 0 -45 -1 1.33286 52.5924 -2.97602 8.52651e-14 -41 -2 -4.8135 5.65066 24.2428 1.13687e-13 -7.5 12.5 -6.89673e-34 -2.48481e-17 -1.59028e-15 0 -4.44089e-16 4 0.0647277 -6.72157 36.1453 -8 0 2.27374e-13 -52.6047 -39.8676 -59.5031 -1.13687e-13 -45 -1 -18.0785 72.0557 25.9419 0 -41 -2 -0.160712 0.97376 23.8577 -1.13687e-13 -7.5 12.5 -3.97569e-16 0 -0 1.13687e-13 0 4 -17.4407 -5.03523 76.9438 
